<mxfile host="app.diagrams.net" agent="Mozilla/5.0 (Windows NT 10.0; Win64; x64) AppleWebKit/537.36 (KHTML, like Gecko) Chrome/131.0.0.0 Safari/537.36 Edg/131.0.0.0" version="25.0.3">
  <diagram name="Page-1" id="NnsKN626D9liByVkLeI2">
    <mxGraphModel dx="930" dy="241" grid="1" gridSize="10" guides="1" tooltips="1" connect="1" arrows="1" fold="1" page="1" pageScale="1" pageWidth="500" pageHeight="360" background="#ffffff" math="0" shadow="0">
      <root>
        <mxCell id="0" />
        <mxCell id="1" parent="0" />
        <mxCell id="nOIMiEheIkG6IheYm219-1" value=":FMU 1" style="shape=umlLifeline;perimeter=lifelinePerimeter;whiteSpace=wrap;html=1;container=1;dropTarget=0;collapsible=0;recursiveResize=0;outlineConnect=0;portConstraint=eastwest;newEdgeStyle={&quot;edgeStyle&quot;:&quot;elbowEdgeStyle&quot;,&quot;elbow&quot;:&quot;vertical&quot;,&quot;curved&quot;:0,&quot;rounded&quot;:0};" parent="1" vertex="1">
          <mxGeometry x="-21" y="40" width="100" height="180" as="geometry" />
        </mxCell>
        <mxCell id="nOIMiEheIkG6IheYm219-2" value=":Bus Simulation" style="shape=umlLifeline;perimeter=lifelinePerimeter;whiteSpace=wrap;html=1;container=1;dropTarget=0;collapsible=0;recursiveResize=0;outlineConnect=0;portConstraint=eastwest;newEdgeStyle={&quot;edgeStyle&quot;:&quot;elbowEdgeStyle&quot;,&quot;elbow&quot;:&quot;vertical&quot;,&quot;curved&quot;:0,&quot;rounded&quot;:0};" parent="1" vertex="1">
          <mxGeometry x="129" y="40" width="100" height="180" as="geometry" />
        </mxCell>
        <mxCell id="nOIMiEheIkG6IheYm219-3" value=":FMU 2" style="shape=umlLifeline;perimeter=lifelinePerimeter;whiteSpace=wrap;html=1;container=1;dropTarget=0;collapsible=0;recursiveResize=0;outlineConnect=0;portConstraint=eastwest;newEdgeStyle={&quot;edgeStyle&quot;:&quot;elbowEdgeStyle&quot;,&quot;elbow&quot;:&quot;vertical&quot;,&quot;curved&quot;:0,&quot;rounded&quot;:0};" parent="1" vertex="1">
          <mxGeometry x="280" y="40" width="100" height="180" as="geometry" />
        </mxCell>
        <mxCell id="nOIMiEheIkG6IheYm219-4" value="Transmit()" style="html=1;verticalAlign=bottom;endArrow=block;edgeStyle=elbowEdgeStyle;elbow=vertical;curved=0;rounded=0;" parent="1" edge="1" source="nOIMiEheIkG6IheYm219-1">
          <mxGeometry width="80" relative="1" as="geometry">
            <mxPoint x="59" y="126" as="sourcePoint" />
            <mxPoint x="178.5" y="126" as="targetPoint" />
          </mxGeometry>
        </mxCell>
        <mxCell id="nOIMiEheIkG6IheYm219-5" value="Transmit()" style="html=1;verticalAlign=bottom;endArrow=block;edgeStyle=elbowEdgeStyle;elbow=vertical;curved=0;rounded=0;" parent="1" edge="1" source="nOIMiEheIkG6IheYm219-2">
          <mxGeometry width="80" relative="1" as="geometry">
            <mxPoint x="210" y="175" as="sourcePoint" />
            <mxPoint x="330" y="175" as="targetPoint" />
          </mxGeometry>
        </mxCell>
        <mxCell id="nOIMiEheIkG6IheYm219-6" value="Confirm()" style="html=1;verticalAlign=bottom;endArrow=block;edgeStyle=elbowEdgeStyle;elbow=vertical;curved=0;rounded=0;" parent="1" target="nOIMiEheIkG6IheYm219-1" edge="1">
          <mxGeometry width="80" relative="1" as="geometry">
            <mxPoint x="178.5" y="175" as="sourcePoint" />
            <mxPoint x="58.5" y="175" as="targetPoint" />
            <Array as="points">
              <mxPoint x="119" y="175" />
            </Array>
          </mxGeometry>
        </mxCell>
        <mxCell id="nOIMiEheIkG6IheYm219-7" value="T&lt;sub&gt;transmit&lt;/sub&gt;" style="endArrow=classic;startArrow=classic;html=1;rounded=0;fillColor=#f5f5f5;strokeColor=#666666;" parent="1" edge="1">
          <mxGeometry y="-24" width="50" height="50" relative="1" as="geometry">
            <mxPoint x="416" y="172" as="sourcePoint" />
            <mxPoint x="416" y="128" as="targetPoint" />
            <mxPoint as="offset" />
          </mxGeometry>
        </mxCell>
        <mxCell id="nOIMiEheIkG6IheYm219-8" value="" style="endArrow=none;dashed=1;html=1;rounded=0;fillColor=#f5f5f5;strokeColor=#666666;" parent="1" edge="1" source="nOIMiEheIkG6IheYm219-2">
          <mxGeometry width="50" height="50" relative="1" as="geometry">
            <mxPoint x="210" y="126" as="sourcePoint" />
            <mxPoint x="420" y="126" as="targetPoint" />
          </mxGeometry>
        </mxCell>
        <mxCell id="nOIMiEheIkG6IheYm219-9" value="" style="endArrow=none;dashed=1;html=1;rounded=0;fillColor=#f5f5f5;strokeColor=#666666;" parent="1" edge="1">
          <mxGeometry width="50" height="50" relative="1" as="geometry">
            <mxPoint x="330" y="175" as="sourcePoint" />
            <mxPoint x="420" y="175" as="targetPoint" />
          </mxGeometry>
        </mxCell>
      </root>
    </mxGraphModel>
  </diagram>
</mxfile>
